<?xml version="1.0" standalone="no"?>
<!DOCTYPE svg PUBLIC "-//W3C//DTD SVG 20010904//EN"
 "http://www.w3.org/TR/2001/REC-SVG-20010904/DTD/svg10.dtd">
<svg version="1.0" xmlns="http://www.w3.org/2000/svg"
 width="700.000000pt" height="700.000000pt" viewBox="0 0 700.000000 700.000000"
 preserveAspectRatio="xMidYMid meet">
<metadata>
Created by potrace 1.11, written by Peter Selinger 2001-2013
</metadata>
<g transform="translate(0.000000,700.000000) scale(0.100000,-0.100000)"
fill="#000000" stroke="none">
<path d="M866 6203 c-58 -15 -76 -64 -76 -214 l0 -119 -70 0 c-78 0 -107 -10
-135 -48 -17 -23 -19 -43 -20 -159 l0 -133 -110 1 c-130 0 -148 -3 -229 -40
-77 -35 -147 -106 -189 -191 l-32 -65 -2 -2055 -3 -2055 23 -66 c40 -117 138
-212 255 -249 63 -20 92 -20 3223 -20 3154 0 3160 0 3220 20 79 27 126 58 175
113 47 53 79 114 94 177 7 31 10 670 8 2090 l-3 2045 -26 55 c-36 76 -81 128
-146 173 -108 73 -54 69 -1139 69 l-973 1 -98 291 c-54 160 -99 299 -101 308
-2 9 -19 31 -38 48 l-35 30 -940 0 -940 0 -34 -33 c-28 -27 -43 -61 -100 -232
-36 -110 -67 -204 -68 -210 -2 -5 -18 -53 -35 -106 l-33 -96 -294 -1 c-162 0
-296 3 -296 7 -1 3 -3 61 -4 129 -2 105 -5 127 -22 150 -29 40 -60 52 -135 52
l-66 0 -4 133 c-6 211 0 207 -335 206 -136 -1 -257 -4 -267 -6z m374 -254 c12
-78 10 -79 -110 -79 -77 0 -109 4 -112 13 -3 10 -2 102 1 102 1 0 49 0 108 -1
l108 0 5 -35z m3083 31 c1 -3 34 -99 72 -215 38 -115 70 -215 72 -221 3 -8
-256 -11 -966 -12 -534 0 -971 1 -971 3 0 11 143 432 150 440 8 10 1635 14
1643 5z m-2858 -390 l0 -55 -337 -1 -338 -1 0 56 0 57 338 -1 337 0 0 -55z
m5205 -297 c36 -16 64 -43 85 -83 18 -34 19 -111 19 -2050 0 -1827 -2 -2018
-16 -2045 -22 -41 -60 -74 -100 -88 -26 -9 -807 -12 -3168 -11 -2877 1 -3138
2 -3166 17 -39 20 -82 70 -91 105 -9 36 -9 3996 0 4043 8 41 55 95 98 113 39
16 6301 16 6339 -1z"/>
<path d="M5371 5067 c-13 -6 -33 -24 -44 -39 -20 -26 -21 -42 -21 -391 0 -396
2 -410 55 -441 28 -17 70 -18 562 -18 358 0 541 3 559 11 16 6 37 25 48 43 18
30 19 53 20 390 1 394 -2 413 -59 442 -26 14 -99 16 -563 16 -403 0 -539 -3
-557 -13z m945 -219 c9 -10 12 -408 2 -429 -6 -13 -53 -15 -395 -15 l-388 1
-2 220 c-1 121 2 222 7 225 13 8 768 6 776 -2z"/>
<path d="M509 4948 c-3 -112 0 -650 4 -655 6 -5 34 -6 115 -4 l32 1 0 110 0
110 68 1 c98 1 122 7 171 43 65 46 96 110 96 201 0 96 -34 156 -107 190 -46
21 -65 23 -214 25 l-164 1 -1 -23z m283 -119 c33 -14 50 -53 43 -104 -7 -59
-33 -78 -110 -83 l-65 -4 0 104 0 105 53 -4 c28 -2 64 -8 79 -14z"/>
<path d="M1099 4963 c-4 -42 0 -665 4 -670 11 -10 479 -6 486 5 3 5 5 34 5 64
l-1 53 -159 5 -159 5 -1 83 -1 82 149 0 148 0 0 65 0 65 -148 0 -148 0 0 60 0
60 158 0 158 0 0 65 0 65 -245 0 c-135 0 -245 -3 -246 -7z"/>
<path d="M3378 4965 c-2 -1 -37 -6 -77 -9 -508 -47 -1008 -352 -1304 -795
-327 -488 -393 -1116 -175 -1666 135 -339 364 -625 669 -830 657 -444 1537
-405 2151 97 73 60 216 203 256 256 15 21 33 43 40 51 48 50 167 253 216 368
266 622 177 1309 -237 1843 -74 96 -236 252 -342 331 -240 177 -544 302 -832
340 -77 10 -357 21 -365 14z m320 -236 c188 -27 331 -70 492 -147 473 -228
819 -709 878 -1222 14 -129 8 -376 -12 -470 -3 -14 -9 -41 -12 -60 -7 -45 -51
-194 -70 -240 -221 -533 -667 -893 -1227 -991 -129 -22 -360 -19 -522 6 -131
21 -387 109 -457 157 -14 10 -29 18 -33 18 -4 0 -46 25 -93 56 -384 250 -632
636 -708 1102 -3 20 -7 111 -9 202 -4 176 13 307 56 455 122 419 404 765 789
968 151 79 357 145 510 163 30 3 56 8 58 9 8 7 304 2 360 -6z"/>
<path d="M3370 4623 c-293 -38 -478 -105 -700 -251 -111 -74 -307 -270 -381
-382 -129 -195 -212 -410 -245 -635 -11 -75 -12 -311 -2 -369 42 -236 64 -310
143 -471 69 -144 158 -267 275 -385 153 -154 322 -266 510 -336 509 -192 1048
-103 1470 241 271 222 466 574 516 935 10 71 10 287 1 365 -39 334 -203 658
-447 888 -232 218 -506 350 -815 392 -91 12 -263 16 -325 8z m340 -239 c481
-84 857 -427 989 -901 11 -40 18 -73 16 -73 -2 0 -88 69 -190 154 -102 85
-197 156 -212 159 -49 9 -82 -12 -240 -150 -87 -76 -160 -140 -163 -143 -3 -3
-39 -34 -80 -70 -41 -36 -77 -67 -80 -70 -9 -9 -315 -275 -331 -288 -13 -10
-20 -8 -40 11 -73 71 -261 237 -280 247 -49 27 -105 10 -171 -52 -7 -7 -42
-38 -78 -68 -36 -30 -67 -57 -70 -60 -3 -3 -66 -57 -140 -120 -168 -142 -190
-161 -210 -180 -8 -9 -32 -28 -52 -44 l-37 -28 -25 84 c-46 159 -51 194 -50
388 0 169 13 247 66 400 156 446 573 772 1046 816 37 4 68 7 69 8 9 7 188 -7
263 -20z m812 -1110 l217 -179 -5 -65 c-17 -201 -106 -428 -240 -610 -47 -64
-197 -220 -212 -220 -4 0 -26 17 -49 37 -23 21 -59 54 -80 73 -21 19 -83 76
-138 125 -54 50 -106 97 -115 105 -9 8 -58 53 -110 100 -173 157 -211 193
-208 200 2 4 39 38 83 76 44 38 85 73 91 79 16 15 127 112 229 200 50 43 92
81 95 84 3 3 37 33 75 66 39 33 84 72 100 87 17 16 35 26 40 25 6 -2 108 -84
227 -183z m-1431 -304 c9 -8 51 -47 95 -86 43 -40 91 -82 105 -95 14 -13 68
-62 119 -109 51 -47 101 -92 110 -100 16 -14 188 -171 214 -195 10 -10 183
-166 270 -245 76 -68 78 -71 58 -86 -9 -7 -20 -14 -25 -14 -4 0 -26 -9 -50
-20 -147 -68 -341 -103 -534 -96 -241 9 -443 75 -653 214 -99 66 -236 199
-304 294 l-48 68 33 27 c52 44 469 401 518 444 47 41 49 41 92 -1z"/>
<path d="M2972 4054 c-127 -33 -210 -111 -246 -234 -30 -100 -14 -199 44 -285
37 -54 65 -78 130 -111 45 -24 71 -30 137 -33 75 -3 89 0 145 26 79 37 138 95
174 170 37 79 39 193 5 268 -73 158 -232 239 -389 199z m123 -228 c59 -25 82
-99 48 -157 -47 -80 -170 -67 -199 22 -24 73 22 139 104 148 7 0 28 -5 47 -13z"/>
<path d="M1605 1906 c-156 -44 -259 -189 -249 -347 16 -242 284 -389 500 -276
48 25 111 92 142 150 24 46 27 63 27 147 0 89 -2 99 -34 158 -40 74 -85 116
-159 150 -62 28 -163 36 -227 18z m153 -234 c30 -20 53 -75 45 -112 -19 -96
-146 -121 -201 -40 -69 102 52 220 156 152z"/>
</g>
</svg>
