<?xml version="1.0" encoding="UTF-8" standalone="no"?>
<svg
   xmlns:dc="http://purl.org/dc/elements/1.1/"
   xmlns:cc="http://creativecommons.org/ns#"
   xmlns:rdf="http://www.w3.org/1999/02/22-rdf-syntax-ns#"
   xmlns:svg="http://www.w3.org/2000/svg"
   xmlns="http://www.w3.org/2000/svg"
   xmlns:xlink="http://www.w3.org/1999/xlink"
   xmlns:sodipodi="http://sodipodi.sourceforge.net/DTD/sodipodi-0.dtd"
   xmlns:inkscape="http://www.inkscape.org/namespaces/inkscape"
   height="512"
   viewBox="0 0 512 512"
   width="512"
   version="1.1"
   id="svg27"
   sodipodi:docname="camera - Copy.svg"
   inkscape:version="0.92.4 (5da689c313, 2019-01-14)">
  <metadata
     id="metadata33">
    <rdf:RDF>
      <cc:Work
         rdf:about="">
        <dc:format>image/svg+xml</dc:format>
        <dc:type
           rdf:resource="http://purl.org/dc/dcmitype/StillImage" />
      </cc:Work>
    </rdf:RDF>
  </metadata>
  <defs
     id="defs31">
    <linearGradient
       inkscape:collect="always"
       id="linearGradient940">
      <stop
         style="stop-color:#00d1b2;stop-opacity:1;"
         offset="0"
         id="stop936" />
      <stop
         id="stop921"
         offset="0.25552166"
         style="stop-color:#00d7df;stop-opacity:1" />
      <stop
         style="stop-color:#3273dc;stop-opacity:1"
         offset="1"
         id="stop938" />
    </linearGradient>
    <linearGradient
       data-name="New Gradient Swatch 1"
       y2="13.855"
       y1="520.42499"
       x2="520.27698"
       x1="13.708"
       gradientUnits="userSpaceOnUse"
       id="linearGradient5343"
       spreadMethod="pad">
      <stop
         id="stop5337"
         stop-color="#003f8a"
         offset="0"
         style="stop-color:#3273dc;stop-opacity:1" />
      <stop
         id="stop5339"
         stop-color="#00d7df"
         offset=".518" />
      <stop
         id="stop5341"
         stop-color="#006df0"
         offset="1"
         style="stop-color:#00d1b2;stop-opacity:1" />
    </linearGradient>
    <linearGradient
       spreadMethod="pad"
       id="linearGradient5335"
       gradientUnits="userSpaceOnUse"
       x1="13.708"
       x2="520.27698"
       y1="520.42499"
       y2="13.855"
       data-name="New Gradient Swatch 1">
      <stop
         offset="0"
         stop-color="#003f8a"
         id="stop5329"
         style="stop-color:#3273dc;stop-opacity:1" />
      <stop
         offset=".518"
         stop-color="#00d7df"
         id="stop5331" />
      <stop
         style="stop-color:#00d1b2;stop-opacity:1"
         offset="1"
         stop-color="#006df0"
         id="stop5333" />
    </linearGradient>
    <linearGradient
       data-name="New Gradient Swatch 1"
       y2="13.855"
       y1="520.42499"
       x2="520.27698"
       x1="13.708"
       gradientUnits="userSpaceOnUse"
       id="linearGradient5321"
       spreadMethod="pad">
      <stop
         id="stop5315"
         stop-color="#003f8a"
         offset="0" />
      <stop
         id="stop5317"
         stop-color="#00d7df"
         offset=".518" />
      <stop
         id="stop5319"
         stop-color="#006df0"
         offset="1"
         style="stop-color:#00c0bc;stop-opacity:1" />
    </linearGradient>
    <linearGradient
       data-name="New Gradient Swatch 1"
       y2="13.855"
       y1="520.42499"
       x2="520.27698"
       x1="13.708"
       gradientUnits="userSpaceOnUse"
       id="linearGradient5313"
       spreadMethod="pad">
      <stop
         id="stop5307"
         stop-color="#003f8a"
         offset="0" />
      <stop
         id="stop5309"
         stop-color="#00d7df"
         offset=".518" />
      <stop
         id="stop5311"
         stop-color="#006df0"
         offset="1"
         style="stop-color:#00c0bc;stop-opacity:0.86434108" />
    </linearGradient>
    <linearGradient
       data-name="New Gradient Swatch 1"
       y2="13.855"
       y1="520.42499"
       x2="520.27698"
       x1="13.708"
       gradientUnits="userSpaceOnUse"
       id="linearGradient5305"
       spreadMethod="pad">
      <stop
         id="stop5299"
         stop-color="#003f8a"
         offset="0" />
      <stop
         id="stop5301"
         stop-color="#00d7df"
         offset=".518" />
      <stop
         id="stop5303"
         stop-color="#006df0"
         offset="1"
         style="stop-color:#00c0bc;stop-opacity:0.5" />
    </linearGradient>
    <linearGradient
       data-name="New Gradient Swatch 1"
       y2="13.855"
       y1="520.42499"
       x2="520.27698"
       x1="13.708"
       gradientUnits="userSpaceOnUse"
       id="linearGradient5297"
       spreadMethod="pad">
      <stop
         id="stop5291"
         stop-color="#003f8a"
         offset="0" />
      <stop
         id="stop5293"
         stop-color="#00d7df"
         offset=".518" />
      <stop
         id="stop5295"
         stop-color="#006df0"
         offset="1"
         style="stop-color:#00c0bc;stop-opacity:0.42248061" />
    </linearGradient>
    <linearGradient
       data-name="New Gradient Swatch 1"
       y2="13.855"
       y1="520.42499"
       x2="520.27698"
       x1="13.708"
       gradientUnits="userSpaceOnUse"
       id="linearGradient5289"
       spreadMethod="pad">
      <stop
         id="stop5283"
         stop-color="#003f8a"
         offset="0" />
      <stop
         id="stop5285"
         stop-color="#00d7df"
         offset=".518" />
      <stop
         id="stop5287"
         stop-color="#006df0"
         offset="1"
         style="stop-color:#00c0bc;stop-opacity:0.39922482" />
    </linearGradient>
    <linearGradient
       data-name="New Gradient Swatch 1"
       y2="13.855"
       y1="520.42499"
       x2="520.27698"
       x1="13.708"
       gradientUnits="userSpaceOnUse"
       id="linearGradient5281"
       spreadMethod="pad">
      <stop
         id="stop5275"
         stop-color="#003f8a"
         offset="0" />
      <stop
         id="stop5277"
         stop-color="#00d7df"
         offset=".518" />
      <stop
         id="stop5279"
         stop-color="#006df0"
         offset="1"
         style="stop-color:#00c0bc;stop-opacity:0.36434108" />
    </linearGradient>
    <linearGradient
       data-name="New Gradient Swatch 1"
       y2="13.855"
       y1="520.42499"
       x2="520.27698"
       x1="13.708"
       gradientUnits="userSpaceOnUse"
       id="linearGradient5273"
       spreadMethod="pad">
      <stop
         id="stop5267"
         stop-color="#003f8a"
         offset="0" />
      <stop
         id="stop5269"
         stop-color="#00d7df"
         offset=".518" />
      <stop
         id="stop5271"
         stop-color="#006df0"
         offset="1"
         style="stop-color:#00c0bc;stop-opacity:0.35271317" />
    </linearGradient>
    <linearGradient
       data-name="New Gradient Swatch 1"
       y2="13.855"
       y1="520.42499"
       x2="520.27698"
       x1="13.708"
       gradientUnits="userSpaceOnUse"
       id="linearGradient5265"
       spreadMethod="pad">
      <stop
         id="stop5259"
         stop-color="#003f8a"
         offset="0" />
      <stop
         id="stop5261"
         stop-color="#00d7df"
         offset=".518" />
      <stop
         id="stop5263"
         stop-color="#006df0"
         offset="1"
         style="stop-color:#00c0bc;stop-opacity:0.33720931" />
    </linearGradient>
    <linearGradient
       data-name="New Gradient Swatch 1"
       y2="13.855"
       y1="520.42499"
       x2="520.27698"
       x1="13.708"
       gradientUnits="userSpaceOnUse"
       id="linearGradient5257"
       spreadMethod="pad">
      <stop
         id="stop5251"
         stop-color="#003f8a"
         offset="0" />
      <stop
         id="stop5253"
         stop-color="#00d7df"
         offset=".518" />
      <stop
         id="stop5255"
         stop-color="#006df0"
         offset="1"
         style="stop-color:#00c0bc;stop-opacity:0.32945737" />
    </linearGradient>
    <linearGradient
       data-name="New Gradient Swatch 1"
       y2="13.855"
       y1="520.42499"
       x2="520.27698"
       x1="13.708"
       gradientUnits="userSpaceOnUse"
       id="linearGradient5249"
       spreadMethod="pad">
      <stop
         id="stop5243"
         stop-color="#003f8a"
         offset="0" />
      <stop
         id="stop5245"
         stop-color="#00d7df"
         offset=".518" />
      <stop
         id="stop5247"
         stop-color="#006df0"
         offset="1"
         style="stop-color:#00c0bc;stop-opacity:0.29457363" />
    </linearGradient>
    <linearGradient
       data-name="New Gradient Swatch 1"
       y2="13.855"
       y1="520.42499"
       x2="520.27698"
       x1="13.708"
       gradientUnits="userSpaceOnUse"
       id="linearGradient5241"
       spreadMethod="pad">
      <stop
         id="stop5235"
         stop-color="#003f8a"
         offset="0" />
      <stop
         id="stop5237"
         stop-color="#00d7df"
         offset=".518" />
      <stop
         id="stop5239"
         stop-color="#006df0"
         offset="1"
         style="stop-color:#00c0bc;stop-opacity:0.29069766" />
    </linearGradient>
    <linearGradient
       data-name="New Gradient Swatch 1"
       y2="13.855"
       y1="520.42499"
       x2="520.27698"
       x1="13.708"
       gradientUnits="userSpaceOnUse"
       id="linearGradient5233"
       spreadMethod="pad">
      <stop
         id="stop5227"
         stop-color="#003f8a"
         offset="0" />
      <stop
         id="stop5229"
         stop-color="#00d7df"
         offset=".518" />
      <stop
         id="stop5231"
         stop-color="#006df0"
         offset="1"
         style="stop-color:#00c0bc;stop-opacity:0.2364341" />
    </linearGradient>
    <linearGradient
       data-name="New Gradient Swatch 1"
       y2="13.855"
       y1="520.42499"
       x2="520.27698"
       x1="13.708"
       gradientUnits="userSpaceOnUse"
       id="linearGradient5225"
       spreadMethod="pad">
      <stop
         id="stop5219"
         stop-color="#003f8a"
         offset="0" />
      <stop
         id="stop5221"
         stop-color="#00d7df"
         offset=".518" />
      <stop
         id="stop5223"
         stop-color="#006df0"
         offset="1"
         style="stop-color:#00c0bc;stop-opacity:0.21317829" />
    </linearGradient>
    <linearGradient
       data-name="New Gradient Swatch 1"
       y2="13.855"
       y1="520.42499"
       x2="520.27698"
       x1="13.708"
       gradientUnits="userSpaceOnUse"
       id="linearGradient5217"
       spreadMethod="pad">
      <stop
         id="stop5211"
         stop-color="#003f8a"
         offset="0" />
      <stop
         id="stop5213"
         stop-color="#00d7df"
         offset=".518" />
      <stop
         id="stop5215"
         stop-color="#006df0"
         offset="1"
         style="stop-color:#00c0bc;stop-opacity:0.1627907" />
    </linearGradient>
    <linearGradient
       data-name="New Gradient Swatch 1"
       y2="13.855"
       y1="520.42499"
       x2="520.27698"
       x1="13.708"
       gradientUnits="userSpaceOnUse"
       id="linearGradient5209"
       spreadMethod="pad">
      <stop
         id="stop5203"
         stop-color="#003f8a"
         offset="0"
         style="stop-color:#3273dc;stop-opacity:1" />
      <stop
         id="stop5205"
         stop-color="#00d7df"
         offset=".518" />
      <stop
         id="stop5207"
         stop-color="#006df0"
         offset="1"
         style="stop-color:#00d1b2;stop-opacity:1" />
    </linearGradient>
    <linearGradient
       data-name="New Gradient Swatch 1"
       y2="13.855"
       y1="520.42499"
       x2="520.27698"
       x1="13.708"
       gradientUnits="userSpaceOnUse"
       id="linearGradient5201"
       spreadMethod="pad">
      <stop
         id="stop5195"
         stop-color="#003f8a"
         offset="0"
         style="stop-color:#3273dc;stop-opacity:1" />
      <stop
         id="stop5197"
         stop-color="#00d7df"
         offset=".518" />
      <stop
         id="stop5199"
         stop-color="#006df0"
         offset="1"
         style="stop-color:#00d1b2;stop-opacity:1" />
    </linearGradient>
    <linearGradient
       data-name="New Gradient Swatch 1"
       y2="13.855"
       y1="520.42499"
       x2="520.27698"
       x1="13.708"
       gradientUnits="userSpaceOnUse"
       id="linearGradient5193"
       spreadMethod="pad">
      <stop
         id="stop5187"
         stop-color="#003f8a"
         offset="0"
         style="stop-color:#3273dc;stop-opacity:1" />
      <stop
         id="stop5189"
         stop-color="#00d7df"
         offset=".518" />
      <stop
         id="stop5191"
         stop-color="#006df0"
         offset="1"
         style="stop-color:#00d1b2;stop-opacity:1" />
    </linearGradient>
    <linearGradient
       data-name="New Gradient Swatch 1"
       y2="13.855"
       y1="520.42499"
       x2="520.27698"
       x1="13.708"
       gradientUnits="userSpaceOnUse"
       id="linearGradient5185"
       spreadMethod="pad">
      <stop
         id="stop5179"
         stop-color="#003f8a"
         offset="0"
         style="stop-color:#3273dc;stop-opacity:1" />
      <stop
         id="stop5181"
         stop-color="#00d7df"
         offset=".518" />
      <stop
         id="stop5183"
         stop-color="#006df0"
         offset="1"
         style="stop-color:#00d1b2;stop-opacity:1" />
    </linearGradient>
    <linearGradient
       data-name="New Gradient Swatch 1"
       y2="13.855"
       y1="520.425"
       x2="520.277"
       x1="13.708"
       gradientUnits="userSpaceOnUse"
       id="linearGradient5177">
      <stop
         id="stop5171"
         stop-color="#003f8a"
         offset="0" />
      <stop
         id="stop5173"
         stop-color="#00d7df"
         offset=".518" />
      <stop
         id="stop5175"
         stop-color="#006df0"
         offset="1"
         style="stop-color:#00d1b2;stop-opacity:0" />
    </linearGradient>
    <linearGradient
       inkscape:collect="always"
       xlink:href="#linearGradient940"
       id="linearGradient942"
       x1="323.41843"
       y1="240.22087"
       x2="-74.458687"
       y2="505.87177"
       gradientUnits="userSpaceOnUse" />
  </defs>
  <sodipodi:namedview
     pagecolor="#ffffff"
     bordercolor="#666666"
     borderopacity="1"
     objecttolerance="10"
     gridtolerance="10"
     guidetolerance="10"
     inkscape:pageopacity="0"
     inkscape:pageshadow="2"
     inkscape:window-width="1920"
     inkscape:window-height="986"
     id="namedview29"
     showgrid="false"
     inkscape:zoom="1"
     inkscape:cx="158.97563"
     inkscape:cy="259.90275"
     inkscape:window-x="-11"
     inkscape:window-y="-11"
     inkscape:window-maximized="1"
     inkscape:current-layer="g25" />
  <linearGradient
     id="a"
     gradientUnits="userSpaceOnUse"
     x1="13.708"
     x2="520.277"
     y1="520.425"
     y2="13.855"
     data-name="New Gradient Swatch 1"
     xlink:href="#linearGradient5321">
    <stop
       offset="0"
       stop-color="#003f8a"
       id="stop2" />
    <stop
       offset=".518"
       stop-color="#00d7df"
       id="stop4" />
    <stop
       offset="1"
       stop-color="#006df0"
       id="stop6" />
  </linearGradient>
  <linearGradient
     id="b"
     x1="14.641"
     x2="521.211"
     xlink:href="#linearGradient5335"
     y1="521.359"
     y2="14.789" />
  <linearGradient
     id="d"
     x1="-21.359"
     x2="485.211"
     xlink:href="#linearGradient5193"
     y1="485.359"
     y2="-21.211" />
  <linearGradient
     id="e"
     x1="48.641"
     x2="555.211"
     xlink:href="#linearGradient5201"
     y1="555.359"
     y2="48.789" />
  <linearGradient
     id="f"
     x1="6.641"
     x2="513.211"
     xlink:href="#linearGradient5209"
     y1="513.359"
     y2="6.789" />
  <g
     id="g25">
    <g
       id="g937"
       transform="matrix(1.0322581,0,0,1.0322581,-8.2580736,-8.2580736)"
       style="fill:url(#linearGradient942);fill-opacity:1">
      <path
         style="fill:url(#linearGradient942);fill-opacity:1"
         id="path15"
         d="M 256,152 A 128,128 0 1 0 384,280 128.144,128.144 0 0 0 256,152 Z m 0,240 A 112,112 0 1 1 368,280 112.123,112.123 0 0 1 256,392 Z"
         inkscape:connector-curvature="0" />
      <path
         style="fill:url(#linearGradient942);fill-opacity:1"
         id="path17"
         d="M 256,176 A 104,104 0 1 0 360,280 104.112,104.112 0 0 0 256,176 Z m -88,104 a 88,88 0 0 1 174.32,-17.15 l -25.2,-21 a 8.013,8.013 0 0 0 -10.39,0.13 l -57.4,50.23 -19.95,-18.13 a 8,8 0 0 0 -10.59,-0.15 l -44.68,38.3 A 87.65,87.65 0 0 1 168,280 Z m 88,88 a 88.021,88.021 0 0 1 -74.43,-41.1 l 42.27,-36.23 73.63,66.93 A 87.537,87.537 0 0 1 256,368 Z m 55.21,-19.53 -49.97,-45.43 50.89,-44.52 31.73,26.44 a 87.89,87.89 0 0 1 -32.65,63.51 z"
         inkscape:connector-curvature="0" />
      <path
         style="fill:url(#linearGradient942);fill-opacity:1"
         id="path19"
         d="m 224,264 a 24,24 0 1 0 -24,-24 24.027,24.027 0 0 0 24,24 z m 0,-32 a 8,8 0 1 1 -8,8 8.009,8.009 0 0 1 8,-8 z"
         inkscape:connector-curvature="0" />
      <g
         id="g5381"
         style="fill:url(#linearGradient942);fill-opacity:1">
        <path
           d="M 476,112 H 341.77 L 327.59,69.47 A 8,8 0 0 0 320,64 H 192 a 8,8 0 0 0 -7.59,5.47 L 170.23,112 H 128 V 96 a 8,8 0 0 0 -8,-8 h -8 V 72 a 8,8 0 0 0 -8,-8 H 72 a 8,8 0 0 0 -8,8 v 16 h -8 a 8,8 0 0 0 -8,8 v 16 H 36 A 28.031,28.031 0 0 0 8,140 v 280 a 28.031,28.031 0 0 0 28,28 h 440 a 28.031,28.031 0 0 0 28,-28 V 140 A 28.031,28.031 0 0 0 476,112 Z M 197.77,80 h 116.46 l 10.67,32 H 187.1 Z M 80,80 h 16 v 8 H 80 Z m -16,24 h 48 v 8 H 64 Z m 424,316 a 12.01,12.01 0 0 1 -12,12 H 36 A 12.01,12.01 0 0 1 24,420 V 140 a 12.01,12.01 0 0 1 12,-12 h 440 a 12.01,12.01 0 0 1 12,12 z"
           id="path13"
           style="fill:url(#linearGradient942);fill-opacity:1"
           inkscape:connector-curvature="0" />
        <path
           d="m 464,144 h -72 a 8,8 0 0 0 -8,8 v 48 a 8,8 0 0 0 8,8 h 72 a 8,8 0 0 0 8,-8 v -48 a 8,8 0 0 0 -8,-8 z m -8,48 h -56 v -32 h 56 z"
           id="path21"
           style="fill:url(#linearGradient942);fill-opacity:1"
           inkscape:connector-curvature="0" />
      </g>
      <path
         style="fill:url(#linearGradient942);fill-opacity:1"
         id="path23"
         d="m 128,368 a 24,24 0 1 0 24,24 24.027,24.027 0 0 0 -24,-24 z m 0,32 a 8,8 0 1 1 8,-8 8.009,8.009 0 0 1 -8,8 z"
         inkscape:connector-curvature="0" />
      <g
         id="text5377"
         style="font-style:normal;font-variant:normal;font-weight:bold;font-stretch:normal;font-size:40px;line-height:1.25;font-family:sans-serif;-inkscape-font-specification:'sans-serif Bold';letter-spacing:0px;word-spacing:0px;fill:url(#linearGradient942);fill-opacity:1;stroke:none"
         aria-label="IE">
        <path
           id="path5395"
           style="font-size:66.66666412px;fill:url(#linearGradient942);fill-opacity:1"
           d="M 75.536458,200.23503 H 47.151043 v -8.59375 h 7.942708 v -31.28255 h -7.942708 v -8.59375 h 28.385415 v 8.59375 H 67.59375 v 31.28255 h 7.942708 z"
           inkscape:connector-curvature="0" />
        <path
           id="path5397"
           style="font-size:66.66666412px;fill:url(#linearGradient942);fill-opacity:1;stroke:none"
           d="M 120.84896,200.23503 H 85.790364 v -48.47005 h 35.058596 v 9.375 h -22.6237 v 8.36589 h 20.99609 v 9.375 H 98.22526 v 11.97916 h 22.6237 z"
           inkscape:connector-curvature="0" />
      </g>
    </g>
  </g>
</svg>
